<svg width="447" height="449" version="1.1" xmlns="http://www.w3.org/2000/svg" desc="Created with imagetracer.js version 1.2.6" ><path fill="rgb(17,17,17)" stroke="rgb(17,17,17)" stroke-width="1" opacity="0.9725490196078431" d="M 17 17 L 431 17 L 431 323 L 423.5 323 L 423 322.5 L 423 26.5 L 421.5 25 L 26.5 25 L 25 26.5 L 25 423 L 72.5 423 L 73 423.5 L 73 431 L 17.5 431 L 17 430.5 L 17 17 Z " /><path fill="rgb(17,17,17)" stroke="rgb(17,17,17)" stroke-width="1" opacity="0.9725490196078431" d="M 97.5 342 L 166.5 342 L 182.5 345 Q 190.5 347.5 195 353.5 L 199 363.5 L 199 410.5 L 193 423 L 181.5 429 L 172.5 431 L 96.5 431 L 95 429.5 L 95 344.5 L 97.5 342 Z M 102 349 L 102 425 L 170 425 L 180 423 L 186 420 L 192 412 L 192 363 L 190 359 L 185 353 L 172 349 L 102 349 Z " /><path fill="rgb(17,17,17)" stroke="rgb(17,17,17)" stroke-width="1" opacity="0.9725490196078431" d="M 241.5 342 L 269.5 342 L 272 344.5 Q 272.5 348.5 269.5 349 L 237.5 349 L 225.5 353 L 221 357.5 L 219 361.5 L 219 410.5 Q 220.8 417.7 226.5 421 L 240.5 425 L 285.5 425 L 295.5 423 L 303 419 L 307 411.5 L 307 378.5 L 308 376 Q 312.6 374.8 314 377.5 L 314 411.5 Q 312.3 420.8 305.5 425 L 300.5 428 L 289.5 431 L 237.5 431 L 228.5 429 L 217 421.5 L 213 414.5 L 212 409.5 L 212 363.5 L 213 358.5 L 218.5 350 L 224.5 346 L 241.5 342 Z " /><path fill="rgb(17,17,17)" stroke="rgb(17,17,17)" stroke-width="1" opacity="0.9725490196078431" d="M 328 342 L 333.5 342 L 334 342.5 L 334 408.5 Q 335.2 416.3 340.5 420 L 346.5 423 L 356.5 425 L 401.5 425 L 411.5 423 L 421 415.5 L 423 411.5 L 423 343.5 L 424.5 342 Q 429 341 430 343.5 L 430 410.5 Q 428.2 420.2 421.5 425 L 413.5 429 L 405.5 431 L 352.5 431 L 339.5 427 L 331 419.5 L 328 412.5 L 328 342 Z " /><path fill="rgb(17,17,17)" stroke="rgb(17,17,17)" stroke-width="1" opacity="0.9725490196078431" d="M 0.5 448 L 447 448.5 L 0.5 449 L 0.5 448 Z " /><path fill="rgb(217,217,217)" stroke="rgb(217,217,217)" stroke-width="1" opacity="1" d="M 16.5 17 L 17 431 L 72.5 431 L 73 430.5 L 73 423.5 L 74 423.5 L 74 431.5 L 73.5 432 L 17.5 432 L 16 430.5 L 16.5 17 Z " /><path fill="rgb(217,217,217)" stroke="rgb(217,217,217)" stroke-width="1" opacity="1" d="M 431.5 17 L 432 322.5 L 431 322.5 L 431.5 17 Z " /><path fill="rgb(217,217,217)" stroke="rgb(217,217,217)" stroke-width="1" opacity="1" d="M 26.5 25 L 421.5 25 L 423 26.5 L 422.5 323 L 422 26 L 26 26 L 26 422.5 L 25 422.5 L 25 26.5 L 26.5 25 Z " /><path fill="rgb(217,217,217)" stroke="rgb(217,217,217)" stroke-width="1" opacity="1" d="M 329.5 341 L 333 341.5 L 329.5 342 L 329.5 341 Z " /><path fill="rgb(217,217,217)" stroke="rgb(217,217,217)" stroke-width="1" opacity="1" d="M 424.5 341 Q 429 340 430 342.5 L 428.5 342 L 423.5 343 L 424.5 341 Z " /><path fill="rgb(217,217,217)" stroke="rgb(217,217,217)" stroke-width="1" opacity="1" d="M 96.5 342 L 95.5 344 L 96.5 342 Z " /><path fill="rgb(217,217,217)" stroke="rgb(217,217,217)" stroke-width="1" opacity="1" d="M 167.5 342 L 173 342.5 L 167.5 343 L 167.5 342 Z " /><path fill="rgb(217,217,217)" stroke="rgb(217,217,217)" stroke-width="1" opacity="1" d="M 236.5 342 L 241 342.5 L 236.5 343 L 236.5 342 Z " /><path fill="rgb(217,217,217)" stroke="rgb(217,217,217)" stroke-width="1" opacity="1" d="M 270.5 342 L 271.5 344 L 270.5 342 Z " /><path fill="rgb(217,217,217)" stroke="rgb(217,217,217)" stroke-width="1" opacity="1" d="M 327.5 342 L 328 410.5 L 327 410.5 L 327.5 342 Z " /><path fill="rgb(217,217,217)" stroke="rgb(217,217,217)" stroke-width="1" opacity="1" d="M 175.5 343 L 178 343.5 L 175.5 344 L 175.5 343 Z " /><path fill="rgb(217,217,217)" stroke="rgb(217,217,217)" stroke-width="1" opacity="1" d="M 231.5 343 L 234 343.5 L 231.5 344 L 231.5 343 Z " /><path fill="rgb(217,217,217)" stroke="rgb(217,217,217)" stroke-width="1" opacity="1" d="M 334.5 343 L 335 408.5 L 334 408.5 L 334.5 343 Z " /><path fill="rgb(217,217,217)" stroke="rgb(217,217,217)" stroke-width="1" opacity="1" d="M 185.5 346 L 188 347.5 L 186.5 347 L 185.5 346 Z " /><path fill="rgb(217,217,217)" stroke="rgb(217,217,217)" stroke-width="1" opacity="1" d="M 223.5 346 L 222.5 348 L 223.5 346 Z " /><path fill="rgb(217,217,217)" stroke="rgb(217,217,217)" stroke-width="1" opacity="1" d="M 271.5 347 L 270.5 349 L 271.5 347 Z " /><path fill="rgb(217,217,217)" stroke="rgb(217,217,217)" stroke-width="1" opacity="1" d="M 220.5 348 L 219.5 350 L 220.5 348 Z " /><path fill="rgb(217,217,217)" stroke="rgb(217,217,217)" stroke-width="1" opacity="1" d="M 166.5 349 L 172 349.5 L 166.5 350 L 166.5 349 Z " /><path fill="rgb(217,217,217)" stroke="rgb(217,217,217)" stroke-width="1" opacity="1" d="M 237.5 349 L 243 349.5 L 237.5 350 L 237.5 349 Z " /><path fill="rgb(217,217,217)" stroke="rgb(217,217,217)" stroke-width="1" opacity="1" d="M 175.5 350 L 178 350.5 L 175.5 351 L 175.5 350 Z " /><path fill="rgb(217,217,217)" stroke="rgb(217,217,217)" stroke-width="1" opacity="1" d="M 192.5 350 L 193.5 352 L 192.5 350 Z " /><path fill="rgb(217,217,217)" stroke="rgb(217,217,217)" stroke-width="1" opacity="1" d="M 232.5 350 L 235 350.5 L 232.5 351 L 232.5 350 Z " /><path fill="rgb(217,217,217)" stroke="rgb(217,217,217)" stroke-width="1" opacity="1" d="M 216.5 352 L 215.5 354 L 216.5 352 Z " /><path fill="rgb(217,217,217)" stroke="rgb(217,217,217)" stroke-width="1" opacity="1" d="M 184.5 353 L 185.5 355 L 184.5 353 Z " /><path fill="rgb(217,217,217)" stroke="rgb(217,217,217)" stroke-width="1" opacity="1" d="M 225.5 353 L 221.5 358 L 225.5 353 Z " /><path fill="rgb(217,217,217)" stroke="rgb(217,217,217)" stroke-width="1" opacity="1" d="M 196.5 356 L 198 358.5 L 197 358.5 L 196.5 356 Z " /><path fill="rgb(217,217,217)" stroke="rgb(217,217,217)" stroke-width="1" opacity="1" d="M 198.5 360 L 199 362.5 L 198 362.5 L 198.5 360 Z " /><path fill="rgb(217,217,217)" stroke="rgb(217,217,217)" stroke-width="1" opacity="1" d="M 212.5 360 L 213 362.5 L 212 362.5 L 212.5 360 Z " /><path fill="rgb(217,217,217)" stroke="rgb(217,217,217)" stroke-width="1" opacity="1" d="M 219.5 361 L 220 365.5 L 219 365.5 L 219.5 361 Z " /><path fill="rgb(217,217,217)" stroke="rgb(217,217,217)" stroke-width="1" opacity="1" d="M 191.5 362 L 192 365.5 L 191 365.5 L 191.5 362 Z " /><path fill="rgb(217,217,217)" stroke="rgb(217,217,217)" stroke-width="1" opacity="1" d="M 313.5 376 L 315 377.5 L 315 409.5 L 314 409.5 L 314 377.5 L 313.5 376 Z " /><path fill="rgb(217,217,217)" stroke="rgb(217,217,217)" stroke-width="1" opacity="1" d="M 219.5 406 L 220 410.5 L 219 410.5 L 219.5 406 Z " /><path fill="rgb(217,217,217)" stroke="rgb(217,217,217)" stroke-width="1" opacity="1" d="M 191.5 408 L 192 411.5 L 191 411.5 L 191.5 408 Z " /><path fill="rgb(217,217,217)" stroke="rgb(217,217,217)" stroke-width="1" opacity="1" d="M 422.5 408 L 423 411.5 L 422 411.5 L 422.5 408 Z " /><path fill="rgb(217,217,217)" stroke="rgb(217,217,217)" stroke-width="1" opacity="1" d="M 212.5 410 L 213 412.5 L 212 412.5 L 212.5 410 Z " /><path fill="rgb(217,217,217)" stroke="rgb(217,217,217)" stroke-width="1" opacity="1" d="M 313.5 412 L 314 414.5 L 313 414.5 L 313.5 412 Z " /><path fill="rgb(217,217,217)" stroke="rgb(217,217,217)" stroke-width="1" opacity="1" d="M 305.5 413 L 306 414.5 L 304 415.5 L 305.5 413 Z " /><path fill="rgb(217,217,217)" stroke="rgb(217,217,217)" stroke-width="1" opacity="1" d="M 189.5 415 L 185.5 420 L 189.5 415 Z " /><path fill="rgb(217,217,217)" stroke="rgb(217,217,217)" stroke-width="1" opacity="1" d="M 221.5 415 L 226.5 421 L 221.5 415 Z " /><path fill="rgb(217,217,217)" stroke="rgb(217,217,217)" stroke-width="1" opacity="1" d="M 420.5 415 L 419.5 417 L 420.5 415 Z " /><path fill="rgb(217,217,217)" stroke="rgb(217,217,217)" stroke-width="1" opacity="1" d="M 337.5 416 L 340.5 420 L 337.5 416 Z " /><path fill="rgb(217,217,217)" stroke="rgb(217,217,217)" stroke-width="1" opacity="1" d="M 195.5 419 L 193.5 422 L 195.5 419 Z " /><path fill="rgb(217,217,217)" stroke="rgb(217,217,217)" stroke-width="1" opacity="1" d="M 215.5 419 L 216.5 421 L 215.5 419 Z " /><path fill="rgb(217,217,217)" stroke="rgb(217,217,217)" stroke-width="1" opacity="1" d="M 300.5 419 L 299.5 421 L 300.5 419 Z " /><path fill="rgb(217,217,217)" stroke="rgb(217,217,217)" stroke-width="1" opacity="1" d="M 416.5 419 L 415.5 421 L 416.5 419 Z " /><path fill="rgb(217,217,217)" stroke="rgb(217,217,217)" stroke-width="1" opacity="1" d="M 310.5 420 L 306.5 425 L 310.5 420 Z " /><path fill="rgb(217,217,217)" stroke="rgb(217,217,217)" stroke-width="1" opacity="1" d="M 331.5 420 L 339 426.5 L 337.5 426 L 331.5 420 Z " /><path fill="rgb(217,217,217)" stroke="rgb(217,217,217)" stroke-width="1" opacity="1" d="M 173.5 423 L 176 423.5 L 173.5 424 L 173.5 423 Z " /><path fill="rgb(217,217,217)" stroke="rgb(217,217,217)" stroke-width="1" opacity="1" d="M 191.5 423 L 189.5 426 L 187.5 427 L 188.5 425 L 191.5 423 Z " /><path fill="rgb(217,217,217)" stroke="rgb(217,217,217)" stroke-width="1" opacity="1" d="M 234.5 423 L 237 423.5 L 234.5 424 L 234.5 423 Z " /><path fill="rgb(217,217,217)" stroke="rgb(217,217,217)" stroke-width="1" opacity="1" d="M 289.5 423 L 292 423.5 L 289.5 424 L 289.5 423 Z " /><path fill="rgb(217,217,217)" stroke="rgb(217,217,217)" stroke-width="1" opacity="1" d="M 350.5 423 L 353 423.5 L 350.5 424 L 350.5 423 Z " /><path fill="rgb(217,217,217)" stroke="rgb(217,217,217)" stroke-width="1" opacity="1" d="M 405.5 423 L 408 423.5 L 405.5 424 L 405.5 423 Z " /><path fill="rgb(217,217,217)" stroke="rgb(217,217,217)" stroke-width="1" opacity="1" d="M 102.5 424 L 170 424.5 L 102.5 425 L 102.5 424 Z " /><path fill="rgb(217,217,217)" stroke="rgb(217,217,217)" stroke-width="1" opacity="1" d="M 220.5 424 L 221.5 426 L 220.5 424 Z " /><path fill="rgb(217,217,217)" stroke="rgb(217,217,217)" stroke-width="1" opacity="1" d="M 240.5 424 L 286 424.5 L 240.5 425 L 240.5 424 Z " /><path fill="rgb(217,217,217)" stroke="rgb(217,217,217)" stroke-width="1" opacity="1" d="M 356.5 424 L 402 424.5 L 356.5 425 L 356.5 424 Z " /><path fill="rgb(217,217,217)" stroke="rgb(217,217,217)" stroke-width="1" opacity="1" d="M 304.5 425 L 303.5 427 L 304.5 425 Z " /><path fill="rgb(217,217,217)" stroke="rgb(217,217,217)" stroke-width="1" opacity="1" d="M 184.5 427 L 186 427.5 L 182.5 429 L 182.5 428 L 184.5 427 Z " /><path fill="rgb(217,217,217)" stroke="rgb(217,217,217)" stroke-width="1" opacity="1" d="M 173.5 430 L 177 430.5 L 173.5 431 L 173.5 430 Z " /><path fill="rgb(217,217,217)" stroke="rgb(217,217,217)" stroke-width="1" opacity="1" d="M 233.5 430 L 237 430.5 L 233.5 431 L 233.5 430 Z " /><path fill="rgb(217,217,217)" stroke="rgb(217,217,217)" stroke-width="1" opacity="1" d="M 290.5 430 L 293 430.5 L 290.5 431 L 290.5 430 Z " /><path fill="rgb(217,217,217)" stroke="rgb(217,217,217)" stroke-width="1" opacity="1" d="M 349.5 430 L 352 430.5 L 349.5 431 L 349.5 430 Z " /><path fill="rgb(217,217,217)" stroke="rgb(217,217,217)" stroke-width="1" opacity="1" d="M 406.5 430 L 409 430.5 L 406.5 431 L 406.5 430 Z " /><path fill="rgb(217,217,217)" stroke="rgb(217,217,217)" stroke-width="1" opacity="1" d="M 97.5 431 L 169 431.5 L 97.5 432 L 97.5 431 Z " /><path fill="rgb(217,217,217)" stroke="rgb(217,217,217)" stroke-width="1" opacity="1" d="M 240.5 431 L 287 431.5 L 240.5 432 L 240.5 431 Z " /><path fill="rgb(217,217,217)" stroke="rgb(217,217,217)" stroke-width="1" opacity="1" d="M 355.5 431 L 402 431.5 L 355.5 432 L 355.5 431 Z " /><path fill="rgb(254,254,254)" stroke="rgb(254,254,254)" stroke-width="1" opacity="1" d="M 17.5 16 L 431 16.5 L 17.5 17 L 17.5 16 Z " /><path fill="rgb(254,254,254)" stroke="rgb(254,254,254)" stroke-width="1" opacity="1" d="M 423.5 323 L 431 323.5 L 423.5 324 L 423.5 323 Z " /><path fill="rgb(254,254,254)" stroke="rgb(254,254,254)" stroke-width="1" opacity="1" d="M 333.5 341 L 334.5 343 L 333.5 341 Z " /><path fill="rgb(254,254,254)" stroke="rgb(254,254,254)" stroke-width="1" opacity="1" d="M 422.5 343 L 423 407.5 L 422 407.5 L 422.5 343 Z " /><path fill="rgb(254,254,254)" stroke="rgb(254,254,254)" stroke-width="1" opacity="1" d="M 430.5 343 L 431 408.5 L 430 408.5 L 430.5 343 Z " /><path fill="rgb(254,254,254)" stroke="rgb(254,254,254)" stroke-width="1" opacity="1" d="M 94.5 344 L 95 429.5 L 94 429.5 L 94.5 344 Z " /><path fill="rgb(254,254,254)" stroke="rgb(254,254,254)" stroke-width="1" opacity="1" d="M 272.5 344 L 273 346.5 L 272 346.5 L 272.5 344 Z " /><path fill="rgb(254,254,254)" stroke="rgb(254,254,254)" stroke-width="1" opacity="1" d="M 102.5 349 L 166 349.5 L 102.5 350 L 102.5 349 Z " /><path fill="rgb(254,254,254)" stroke="rgb(254,254,254)" stroke-width="1" opacity="1" d="M 243.5 349 L 268 349.5 L 243.5 350 L 243.5 349 Z " /><path fill="rgb(254,254,254)" stroke="rgb(254,254,254)" stroke-width="1" opacity="1" d="M 186.5 355 L 188.5 358 L 186.5 355 Z " /><path fill="rgb(254,254,254)" stroke="rgb(254,254,254)" stroke-width="1" opacity="1" d="M 199.5 365 L 200 408.5 L 199 408.5 L 199.5 365 Z " /><path fill="rgb(254,254,254)" stroke="rgb(254,254,254)" stroke-width="1" opacity="1" d="M 211.5 365 L 212 406.5 L 211 406.5 L 211.5 365 Z " /><path fill="rgb(254,254,254)" stroke="rgb(254,254,254)" stroke-width="1" opacity="1" d="M 191.5 366 L 192 407.5 L 191 407.5 L 191.5 366 Z " /><path fill="rgb(254,254,254)" stroke="rgb(254,254,254)" stroke-width="1" opacity="1" d="M 219.5 366 L 220 405.5 L 219 405.5 L 219.5 366 Z " /><path fill="rgb(254,254,254)" stroke="rgb(254,254,254)" stroke-width="1" opacity="1" d="M 418.5 417 L 417.5 419 L 418.5 417 Z " /><path fill="rgb(254,254,254)" stroke="rgb(254,254,254)" stroke-width="1" opacity="1" d="M 217.5 422 L 219.5 425 L 217.5 422 Z " /><path fill="rgb(254,254,254)" stroke="rgb(254,254,254)" stroke-width="1" opacity="1" d="M 423.5 423 L 422.5 425 L 423.5 423 Z " /><path fill="rgb(255,255,255)" stroke="rgb(255,255,255)" stroke-width="1" opacity="1" d="M 1 1 L 447 1 L 447 447 L 1 447 L 1 1 Z M 18 16 L 16 18 L 16 432 L 17 432 L 74 432 L 74 424 L 74 423 L 27 423 L 26 423 L 26 26 L 422 26 L 422 323 Q 424 326 431 324 L 432 323 L 432 18 L 431 16 L 18 16 Z M 329 341 L 327 343 L 327 412 L 330 420 L 337 426 L 349 431 Q 353 430 355 432 L 403 432 L 416 429 L 423 425 L 428 419 L 431 409 L 431 344 Q 430 340 425 341 L 422 344 L 422 412 L 420 416 L 416 420 L 404 424 L 354 424 L 346 422 L 341 419 L 335 410 L 335 343 Q 334 340 329 341 Z M 95 342 L 94 345 L 94 430 L 97 432 L 170 432 L 184 429 L 194 423 L 198 417 L 200 409 L 200 366 L 198 358 L 195 353 L 185 345 L 174 342 L 95 342 Z M 236 342 L 228 344 L 217 350 L 213 357 L 211 366 L 211 407 L 213 417 L 217 423 L 227 429 L 240 432 L 288 432 L 300 429 L 306 426 Q 313 421 315 412 L 315 378 L 313 375 L 307 376 L 307 409 L 303 418 L 296 422 L 288 424 L 239 424 L 227 420 L 220 412 L 220 362 L 222 358 Q 227 352 236 350 L 268 350 L 272 349 L 273 345 L 271 342 L 236 342 Z " /><path fill="rgb(255,255,255)" stroke="rgb(255,255,255)" stroke-width="1" opacity="1" d="M 102 350 L 173.5 350 Q 184.8 351.7 190 359.5 L 191 361.5 L 191 411.5 L 184.5 420 L 171.5 424 L 102 424 L 102 350 Z " /><path fill="rgb(255,255,255)" stroke="rgb(255,255,255)" stroke-width="1" opacity="0.7098039215686275" d="M 1.5 447 L 447 447.5 L 1.5 448 L 1.5 447 Z " /><path fill="rgb(255,255,255)" stroke="rgb(255,255,255)" stroke-width="1" opacity="0.6901960784313725" d="M 0 0 L 447 0.5 L 1 1 L 0.5 448 L 0 0 Z " /></svg>