<svg xmlns="http://www.w3.org/2000/svg" viewBox="10 10 430 430" fill="none">
  <!-- Bracket symbol -->
  <path fill="#E8E0D6" d="M 17 17 L 431 17 L 431 323 L 423 323 L 423 26 L 25 26 L 25 423 L 73 423 L 73 431 L 17 431 Z"/>
  <!-- D -->
  <path fill="#E8E0D6" d="M 97 342 L 167 342 Q 183 345 195 354 L 199 364 L 199 411 Q 195 421 182 429 L 173 431 L 95 431 L 95 344 Z M 102 349 L 102 425 L 170 425 Q 180 423 186 420 L 192 412 L 192 363 Q 190 358 185 353 L 172 349 Z"/>
  <!-- G -->
  <path fill="#E8E0D6" d="M 242 342 L 270 342 Q 273 345 270 349 L 238 349 Q 226 352 221 358 L 219 362 L 219 411 Q 221 418 227 421 L 241 425 L 286 425 Q 296 423 303 419 L 307 412 L 307 378 Q 309 375 314 378 L 314 412 Q 312 421 306 425 L 290 431 L 238 431 Q 228 429 217 422 L 213 415 L 212 410 L 212 364 Q 213 358 219 350 L 225 346 Z"/>
  <!-- U -->
  <path fill="#E8E0D6" d="M 328 342 L 334 342 L 334 409 Q 335 416 341 420 L 347 423 L 357 425 L 402 425 Q 412 423 421 416 L 423 412 L 423 343 Q 425 341 430 343 L 430 411 Q 428 421 422 425 L 414 429 L 406 431 L 353 431 Q 340 427 331 420 L 328 413 Z"/>
</svg>
